<?xml version="1.0" standalone="no"?><!DOCTYPE svg PUBLIC "-//W3C//DTD SVG 1.1//EN" "http://www.w3.org/Graphics/SVG/1.1/DTD/svg11.dtd"><svg t="1567581468618" class="icon" viewBox="0 0 1024 1024" version="1.1" xmlns="http://www.w3.org/2000/svg" p-id="4368" xmlns:xlink="http://www.w3.org/1999/xlink" width="200" height="200"><defs><style type="text/css"></style></defs><path d="M120 212.2m-43.2 0a43.2 43.2 0 1 0 86.4 0 43.2 43.2 0 1 0-86.4 0Z" p-id="4369"></path><path d="M894.6 255.4H298.1c-23.8 0-43.2-19.4-43.2-43.2 0-23.8 19.4-43.2 43.2-43.2h596.5c23.8 0 43.2 19.4 43.2 43.2 0 23.7-19.4 43.2-43.2 43.2z" p-id="4370"></path><path d="M120 510.4m-43.2 0a43.2 43.2 0 1 0 86.4 0 43.2 43.2 0 1 0-86.4 0Z" p-id="4371"></path><path d="M894.6 553.6H298.1c-23.8 0-43.2-19.4-43.2-43.2 0-23.8 19.4-43.2 43.2-43.2h596.5c23.8 0 43.2 19.4 43.2 43.2 0 23.8-19.4 43.2-43.2 43.2z" p-id="4372"></path><path d="M120 808.7m-43.2 0a43.2 43.2 0 1 0 86.4 0 43.2 43.2 0 1 0-86.4 0Z" p-id="4373"></path><path d="M894.6 851.9H298.1c-23.8 0-43.2-19.4-43.2-43.2 0-23.8 19.4-43.2 43.2-43.2h596.5c23.8 0 43.2 19.4 43.2 43.2 0 23.7-19.4 43.2-43.2 43.2z" p-id="4374"></path></svg>