<?xml version="1.0" standalone="no"?><!DOCTYPE svg PUBLIC "-//W3C//DTD SVG 1.1//EN" "http://www.w3.org/Graphics/SVG/1.1/DTD/svg11.dtd"><svg class="icon" width="200px" height="200.00px" viewBox="0 0 1024 1024" version="1.1" xmlns="http://www.w3.org/2000/svg"><path d="M991.744 763.904l-102.4-50.176c-4.608-2.048-9.728-2.048-14.336 0l-338.944 166.4c-14.848 7.168-32.768 7.168-47.616 0l-338.944-166.4c-4.608-2.048-9.728-2.048-14.336 0l-102.4 50.176c-12.8 6.144-12.8 24.576 0 30.72l455.68 223.744c14.848 7.168 32.768 7.168 47.616 0l455.68-223.744c12.8-6.144 12.8-24.064 0-30.72z"  /><path d="M991.744 499.712l-102.4-50.176c-4.608-2.048-9.728-2.048-14.336 0l-338.944 166.4c-14.848 7.168-32.768 7.168-47.616 0L148.992 449.536c-4.608-2.048-9.728-2.048-14.336 0l-102.4 50.176c-12.8 6.144-12.8 24.576 0 30.72l455.68 223.744c14.848 7.168 32.768 7.168 47.616 0l455.68-223.744c13.312-6.144 13.312-24.576 0.512-30.72z"  /><path d="M488.448 483.328l-455.68-223.744c-12.8-6.144-12.8-24.576 0-30.72L488.448 5.12c14.848-7.168 32.768-7.168 47.616 0l455.68 223.744c12.8 6.144 12.8 24.576 0 30.72l-455.68 223.744c-15.36 7.168-32.768 7.168-47.616 0z"  /></svg>