<?xml version="1.0" standalone="no"?><!DOCTYPE svg PUBLIC "-//W3C//DTD SVG 1.1//EN" "http://www.w3.org/Graphics/SVG/1.1/DTD/svg11.dtd"><svg class="icon" width="200px" height="191.40px" viewBox="0 0 1070 1024" version="1.1" xmlns="http://www.w3.org/2000/svg"><path d="M213.504 792.064c0 39.424 31.232 71.168 69.632 71.168h380.416c5.632 0 10.24 4.608 10.24 10.24v55.808c0 5.632-4.608 10.24-10.24 10.24H256.512C190.976 940.032 138.24 885.76 138.24 819.712V204.288c0-66.56 52.736-120.32 118.272-120.32h407.04c5.632 0 10.24 4.608 10.24 10.24v55.808c0 5.632-4.608 10.24-10.24 10.24H283.136c-38.4 0-69.632 31.744-69.632 71.168v560.64z"  /><path d="M856.576 474.112L783.872 399.36c-14.336-14.848-14.336-38.4 0-53.248 14.336-14.336 37.376-14.848 52.224-0.512l0.512 0.512 135.68 139.264c14.336 14.848 14.336 38.4 0 53.248l-135.68 139.264c-14.336 14.336-37.376 14.848-52.224 0.512l-0.512-0.512c-14.336-14.848-14.336-38.4 0-53.248l72.704-74.752H475.136c-20.48 0-37.376-16.896-37.376-37.376 0-20.992 16.384-37.888 37.376-37.888l381.44-0.512z"  /></svg>