<?xml version="1.0" standalone="no"?><!DOCTYPE svg PUBLIC "-//W3C//DTD SVG 1.1//EN" "http://www.w3.org/Graphics/SVG/1.1/DTD/svg11.dtd"><svg t="1567675345531" class="icon" viewBox="0 0 1024 1024" version="1.1" xmlns="http://www.w3.org/2000/svg" p-id="1730" xmlns:xlink="http://www.w3.org/1999/xlink" width="200" height="200"><defs><style type="text/css"></style></defs><path d="M260.082992 528.303314c4.943592 0 9.91379-1.503237 13.885242-4.602831L801.064047 115.091248c8.495488-6.567579 9.129938-17.761526 1.444908-25.02393-7.658424-7.284917-20.759813-7.839549-29.228695-1.248434L246.183424 497.429143c-8.495488 6.591115-9.129938 17.785062-1.444908 25.046443C248.817414 526.361079 254.449691 528.303314 260.082992 528.303314" p-id="1731"></path><path d="M787.164478 936.774403c5.646604 0 11.277858-1.965771 15.344476-5.827729 7.68503-7.262404 7.037277-18.478863-1.444908-25.046443L273.968234 497.429143c-8.455579-6.591115-21.571295-5.990434-29.228695 1.248434-7.68503 7.238868-7.023974 18.478863 1.444908 25.02393l527.096836 408.471089C777.251711 935.271166 782.22191 936.774403 787.164478 936.774403" p-id="1732"></path></svg>