<?xml version="1.0" standalone="no"?><!DOCTYPE svg PUBLIC "-//W3C//DTD SVG 1.1//EN" "http://www.w3.org/Graphics/SVG/1.1/DTD/svg11.dtd"><svg t="1567675433158" class="icon" viewBox="0 0 1024 1024" version="1.1" xmlns="http://www.w3.org/2000/svg" p-id="3072" xmlns:xlink="http://www.w3.org/1999/xlink" width="200" height="200"><defs><style type="text/css"></style></defs><path d="M778.666667 416c-57.6 0-106.666667-34.133333-132.266667-81.066667L384 467.2c6.4 17.066667 10.666667 36.266667 10.666667 55.466667 0 21.333333-4.266667 40.533333-10.666667 57.6l260.266667 115.2c23.466667-51.2 74.666667-87.466667 134.4-87.466667 83.2 0 149.333333 66.133333 149.333333 149.333333s-66.133333 149.333333-149.333333 149.333333-149.333333-66.133333-149.333333-149.333333c0-6.4 2.133333-14.933333 2.133333-21.333333l-270.933333-119.466667c-27.733333 34.133333-68.266667 55.466667-115.2 55.466667-83.2 0-149.333333-66.133333-149.333333-149.333333s66.133333-149.333333 149.333333-149.333333c46.933333 0 89.6 23.466667 117.333333 57.6l270.933333-136.533333c-2.133333-8.533333-2.133333-17.066667-2.133333-27.733333 0-83.2 66.133333-149.333333 149.333333-149.333333s149.333333 66.133333 149.333333 149.333333C928 349.866667 861.866667 416 778.666667 416zM778.666667 864c59.733333 0 106.666667-46.933333 106.666667-106.666667 0-59.733333-46.933333-106.666667-106.666667-106.666667-59.733333 0-106.666667 46.933333-106.666667 106.666667C672 817.066667 718.933333 864 778.666667 864zM245.333333 416c-59.733333 0-106.666667 46.933333-106.666667 106.666667s46.933333 106.666667 106.666667 106.666667 106.666667-46.933333 106.666667-106.666667S305.066667 416 245.333333 416zM778.666667 160c-59.733333 0-106.666667 46.933333-106.666667 106.666667 0 59.733333 46.933333 106.666667 106.666667 106.666667 59.733333 0 106.666667-46.933333 106.666667-106.666667C885.333333 206.933333 838.4 160 778.666667 160z" p-id="3073"></path></svg>